# xmcd
#
# Track frame offsets: 
#        150
#        12130
#        32505
#        48730
#        67053
#        80760
#        93211
#        110933
#        124714
#        140288
#
# Disc length: 2130 seconds
#
# Revision: 0
# Processed by: cddbd v1.5.2PL0 Copyright (c) Steve Scherf et al.
# Submitted via: ExactAudioCopy v0.99pb4
#
DISCID=8708500a
DTITLE=Prosztata Blues - Prosztata Blues
DYEAR=2008
DGENRE=Blues
TTITLE0=Reggel a városban
TTITLE1=Prosztata Blues
TTITLE2=Szomszéd lány
TTITLE3=Túró kocsmája (part 1)
TTITLE4=Nem érdekel már
TTITLE5=Óceán
TTITLE6=Maradj az ágyban
TTITLE7=Fekszem a fûben
TTITLE8=Pardon ez a kezem volt
TTITLE9=Túró kocsmája (part 2)
EXTD=
EXTT0=
EXTT1=
EXTT2=
EXTT3=
EXTT4=
EXTT5=
EXTT6=
EXTT7=
EXTT8=
EXTT9=
PLAYORDER=
